{"glyphs":{" ":{"ha":499,"x_min":0,"x_max":0,"o":""},"!":{"ha":400,"x_min":13,"x_max":382,"o":"m 382 1047 q 364 856 382 969 l 333 663 l 324 585 q 313 492 321 560 q 293 415 306 439 q 231 368 274 382 q 171 357 196 357 q 102 378 133 357 q 69 515 71 400 q 68 667 69 544 q 64 789 67 743 l 51 943 q 69 1049 51 1008 q 244 1106 111 1094 q 296 1111 310 1111 q 307 1110 299 1111 q 318 1108 315 1108 q 361 1103 350 1108 q 382 1047 382 1092 m 378 164 q 326 37 378 86 q 194 -12 274 -12 q 71 25 124 -12 q 13 135 13 67 q 33 213 13 171 q 214 308 81 308 q 331 274 286 308 q 378 164 378 235 z "},"A":{"ha":790,"x_min":36,"x_max":754,"o":"m 754 67 q 715 21 754 35 q 589 0 657 0 q 472 29 517 0 q 457 118 461 64 q 446 207 453 179 q 397 221 426 221 q 335 213 388 221 q 313 115 326 193 q 300 40 306 78 q 279 28 294 33 l 254 15 q 138 0 196 0 q 56 13 76 0 q 36 58 36 26 q 46 135 38 69 q 94 379 53 189 l 146 611 q 178 839 178 760 q 163 905 178 861 q 149 971 149 949 q 169 1024 149 1004 q 196 1039 172 1026 q 439 1103 292 1090 l 526 1110 q 631 1063 608 1110 q 678 611 642 871 l 742 163 q 754 67 754 72 m 429 589 q 424 667 429 615 q 418 746 418 719 q 419 772 418 764 l 406 781 q 358 564 358 625 q 389 525 358 525 q 425 539 407 525 q 429 589 429 563 z "},"B":{"ha":764,"x_min":35,"x_max":728,"o":"m 728 338 q 593 71 728 157 q 290 0 482 0 q 76 64 90 0 q 65 340 65 113 q 68 592 65 443 l 72 843 q 53 921 72 868 q 35 1001 35 974 q 78 1071 35 1049 q 107 1081 78 1071 q 306 1111 199 1111 q 579 1074 493 1111 q 711 860 711 1018 q 688 747 711 797 q 638 679 674 718 q 583 615 596 633 q 728 338 728 524 m 421 758 q 404 821 421 790 q 371 836 378 836 q 329 756 329 836 q 369 700 329 700 q 421 758 421 700 m 444 383 q 436 424 444 411 q 406 451 431 431 q 388 453 403 451 q 367 456 372 456 q 339 443 350 456 q 335 409 339 436 q 332 374 332 382 q 349 325 332 344 q 374 321 360 321 q 444 383 444 321 z "},"C":{"ha":642,"x_min":26,"x_max":613,"o":"m 613 368 q 525 88 613 190 q 482 46 501 60 q 324 0 418 0 q 303 3 319 0 q 119 101 172 21 q 26 476 26 242 q 426 1111 26 1111 q 572 1058 564 1111 q 579 931 579 1015 q 575 785 579 910 q 571 722 574 736 q 539 671 564 686 q 524 669 535 669 q 413 731 479 669 q 343 793 346 793 q 310 772 322 793 q 292 732 307 768 q 286 610 286 656 q 394 394 286 394 q 493 448 433 394 q 567 501 553 501 q 610 428 596 501 q 613 368 613 414 z "},"D":{"ha":754,"x_min":35,"x_max":719,"o":"m 719 608 q 703 375 719 518 q 692 300 696 321 q 669 226 685 265 q 453 19 597 49 q 256 1 364 1 q 143 8 182 1 q 78 78 89 18 q 75 139 76 79 q 72 279 72 219 q 75 506 72 371 l 79 790 q 79 822 79 804 q 78 846 78 842 q 56 922 78 872 q 35 1000 35 972 q 72 1058 35 1035 q 108 1072 75 1060 q 328 1111 214 1111 q 608 1011 525 1111 q 639 965 619 997 q 719 608 719 829 m 467 558 q 433 740 467 653 q 383 781 418 781 q 357 772 371 781 q 336 542 336 760 q 339 408 336 433 q 353 389 342 399 q 392 382 381 382 q 467 558 467 382 z "},"H":{"ha":785,"x_min":36,"x_max":750,"o":"m 750 1008 q 744 738 750 918 q 738 468 738 558 q 746 133 738 282 q 747 94 747 110 q 710 25 747 36 q 572 1 628 1 q 551 3 544 1 q 542 1 550 3 q 531 0 533 0 q 479 18 501 0 q 460 182 460 54 q 463 214 460 169 q 465 275 465 258 l 465 369 q 426 413 447 413 l 414 413 q 403 411 410 411 q 367 410 369 411 q 335 365 340 406 q 333 304 333 358 q 336 229 333 279 q 339 154 339 179 q 322 36 339 79 q 244 11 315 19 q 154 4 186 4 q 103 4 104 4 q 64 31 74 8 l 51 60 q 72 803 72 560 q 50 965 72 897 q 36 1001 47 971 l 36 1010 q 61 1067 36 1049 q 74 1072 63 1068 l 85 1076 q 260 1108 167 1108 q 301 1107 288 1108 q 315 1100 308 1103 q 332 1071 325 1093 q 333 1014 333 1063 q 331 929 333 986 q 329 844 329 872 q 333 769 329 810 q 404 746 353 746 q 461 767 446 746 q 472 828 472 783 q 474 851 472 833 q 475 874 475 869 q 467 940 475 896 q 460 1006 460 983 q 486 1076 460 1060 q 568 1097 499 1085 q 679 1111 644 1111 q 729 1100 718 1111 q 750 1008 750 1075 z "},"I":{"ha":371,"x_min":17,"x_max":342,"o":"m 342 83 q 338 51 342 56 q 188 0 297 -8 l 79 8 q 42 69 49 25 l 42 144 q 40 157 42 151 l 40 169 q 42 222 40 197 l 44 274 q 50 714 44 299 q 51 817 50 743 q 54 846 53 842 q 35 931 54 874 q 17 1017 17 988 l 17 1029 q 94 1082 43 1071 l 190 1103 q 253 1111 229 1111 q 325 1076 311 1111 q 340 889 340 1038 q 335 717 340 832 q 331 546 331 603 q 336 315 331 468 q 342 83 342 161 z "},"P":{"ha":692,"x_min":32,"x_max":660,"o":"m 660 669 q 564 364 660 481 q 351 275 492 276 q 338 236 338 263 q 339 215 338 232 q 340 193 340 199 l 340 185 q 339 176 339 181 q 344 132 339 167 q 350 86 350 97 q 340 43 350 61 q 175 1 274 1 q 83 10 106 1 q 58 49 61 18 q 56 190 56 79 q 58 418 56 283 l 63 646 q 61 700 63 675 q 61 753 60 725 l 64 800 q 60 867 64 822 q 56 935 56 913 q 44 983 56 951 q 32 1019 32 1014 q 43 1049 32 1033 q 64 1064 49 1054 q 314 1111 140 1111 l 326 1111 q 494 1067 414 1111 q 608 946 574 1022 q 660 669 660 835 m 410 703 q 358 793 410 793 q 324 781 329 793 q 319 740 319 774 q 318 688 319 729 q 317 633 317 646 q 353 594 317 594 q 386 608 378 594 q 410 703 410 649 z "},"R":{"ha":756,"x_min":35,"x_max":740,"o":"m 740 283 q 703 99 740 172 q 553 1 653 1 q 496 14 518 1 q 404 142 426 51 q 369 300 393 194 q 354 326 368 301 q 332 343 344 343 q 307 306 313 343 q 304 258 304 289 q 308 184 304 233 q 313 110 313 135 q 308 56 313 75 q 203 19 300 19 q 160 17 194 19 q 117 14 126 14 q 56 53 61 14 q 54 149 54 56 q 60 492 54 263 q 67 835 67 721 q 51 903 67 856 q 35 975 35 950 q 58 1029 35 1006 q 153 1081 93 1064 q 261 1100 168 1085 l 276 1103 q 308 1108 293 1106 q 372 1111 364 1111 q 447 1103 393 1111 q 653 1011 579 1082 q 733 807 733 933 q 674 603 733 693 q 603 531 656 575 q 571 489 571 503 q 596 444 571 464 q 649 425 621 425 q 666 428 654 425 q 683 432 678 432 q 729 371 714 432 q 740 283 740 326 m 456 726 q 382 807 456 807 q 361 806 365 807 q 325 724 325 794 l 325 686 q 392 651 325 651 q 438 673 421 651 q 456 726 456 694 z "},"S":{"ha":697,"x_min":31,"x_max":665,"o":"m 665 349 q 638 199 665 272 q 553 72 607 117 q 244 0 465 0 q 244 1 249 0 q 228 3 239 1 q 129 10 194 6 q 50 60 74 14 q 39 164 46 108 q 31 267 31 226 q 58 400 31 338 q 106 417 78 417 q 192 366 124 417 q 303 315 260 315 q 318 317 314 315 q 339 364 339 329 q 264 469 339 406 q 124 600 151 565 q 49 801 49 693 q 96 968 49 903 q 314 1103 172 1072 q 364 1111 353 1111 q 395 1110 371 1111 q 425 1108 419 1108 q 582 1100 544 1108 q 638 940 638 1063 q 626 826 638 876 q 575 771 614 771 q 482 811 543 771 q 393 851 421 851 q 353 840 372 851 q 347 815 347 829 q 429 706 347 778 q 583 561 558 593 q 665 349 665 458 z "},"T":{"ha":740,"x_min":33,"x_max":706,"o":"m 706 1003 q 703 950 706 985 q 700 897 700 915 l 700 850 q 701 822 700 838 q 701 803 701 806 q 646 699 701 699 q 588 732 626 699 q 528 767 549 765 q 504 728 504 758 q 506 495 504 650 q 507 263 507 340 q 516 184 507 236 q 525 107 525 132 q 440 6 525 22 q 285 1 422 1 l 238 1 q 193 90 193 25 q 194 121 193 96 q 196 154 196 146 q 194 165 196 157 l 194 176 q 199 247 194 197 q 206 346 204 314 q 226 689 213 463 q 224 732 221 699 q 210 771 225 760 q 141 733 183 771 q 74 694 99 694 q 33 792 33 694 q 35 810 33 794 q 35 838 35 825 l 35 933 q 35 963 35 946 q 33 983 33 979 q 60 1090 33 1072 q 356 1111 72 1111 q 676 1090 625 1111 q 706 1003 706 1078 z "},"U":{"ha":754,"x_min":35,"x_max":719,"o":"m 719 1022 q 707 935 719 997 q 703 771 703 896 q 704 638 703 726 q 706 504 706 549 q 696 263 706 361 q 539 25 676 63 q 353 0 446 0 q 61 261 82 0 q 53 501 53 365 q 58 656 53 553 q 64 811 64 760 q 54 956 64 904 q 43 992 53 964 q 35 1028 35 1014 q 154 1099 35 1086 q 201 1106 165 1100 q 249 1111 231 1111 q 333 1060 324 1111 q 335 993 335 1056 q 330 804 335 931 q 325 615 325 678 q 328 496 325 571 q 333 438 333 479 q 378 381 333 381 q 443 422 435 381 q 450 508 444 424 q 458 717 458 622 q 447 918 458 825 q 443 947 446 926 q 428 1010 428 1001 q 432 1044 428 1026 q 568 1097 465 1085 q 624 1103 617 1103 q 697 1086 674 1103 q 719 1022 719 1069 z "},"Y":{"ha":821,"x_min":38,"x_max":783,"o":"m 783 1053 q 747 924 783 1021 q 736 892 744 915 q 682 774 735 888 q 567 526 629 660 q 533 360 533 456 q 540 239 533 319 q 547 118 547 158 q 546 75 547 85 q 496 17 539 32 q 414 8 472 8 q 356 5 394 8 q 297 1 317 1 q 226 32 244 1 q 217 97 217 85 q 226 169 217 107 q 233 256 233 215 l 233 353 q 204 565 233 479 q 163 683 192 599 q 119 815 142 749 q 61 940 93 892 q 38 1000 38 976 q 49 1031 38 1015 q 172 1085 65 1054 q 310 1111 264 1111 q 356 1083 349 1111 q 399 918 374 1067 q 440 781 422 781 q 475 849 460 781 q 489 936 489 908 q 478 1006 489 972 q 642 1093 482 1074 q 715 1099 689 1099 q 783 1053 783 1099 z "},"a":{"ha":650,"x_min":29,"x_max":619,"o":"m 619 250 q 514 13 619 51 q 464 0 492 4 l 460 0 q 409 28 440 0 q 364 57 378 57 q 318 29 351 57 q 211 3 278 3 q 157 6 175 3 q 58 93 93 15 q 29 229 29 156 q 169 501 29 404 q 253 540 189 515 q 329 583 308 563 q 361 672 361 615 q 353 693 361 679 q 344 710 349 701 q 319 714 331 714 q 290 688 290 714 q 301 659 290 679 q 313 633 313 639 q 297 608 313 626 q 171 557 251 557 q 53 611 74 557 q 44 679 44 633 q 67 761 44 731 q 404 882 154 882 q 583 703 583 882 q 572 588 583 664 q 561 474 561 513 q 569 400 561 433 l 617 349 l 619 250 m 354 374 q 344 408 354 392 q 319 424 335 424 q 308 422 317 424 q 296 421 299 421 q 260 351 260 404 q 283 294 260 322 q 306 292 297 292 q 338 306 331 292 q 354 374 354 342 z "},"d":{"ha":649,"x_min":28,"x_max":619,"o":"m 619 244 q 543 24 619 83 q 494 7 522 7 q 440 10 456 7 q 402 34 424 13 q 376 56 381 56 q 336 29 367 56 q 214 0 293 0 q 88 83 139 0 q 36 236 49 146 q 28 408 28 294 q 143 800 28 657 q 274 856 188 856 q 354 844 307 856 q 375 883 375 860 q 357 956 375 913 q 336 988 356 960 q 324 1022 324 1006 q 331 1047 324 1033 q 433 1092 368 1072 q 544 1111 499 1111 q 571 1107 561 1111 q 589 1085 576 1101 q 596 1007 596 1076 q 588 733 596 915 q 579 458 579 550 q 581 400 579 406 q 615 351 586 378 l 619 244 m 363 421 q 347 525 363 472 q 288 593 328 593 q 247 564 263 593 q 235 513 235 540 q 242 422 235 468 q 249 401 242 422 q 315 333 271 333 q 363 421 363 358 z "},"h":{"ha":690,"x_min":32,"x_max":658,"o":"m 658 247 q 638 83 658 142 q 590 23 624 46 q 514 0 556 0 q 411 82 433 0 q 400 231 400 119 l 400 286 q 401 318 400 300 q 401 340 401 336 q 397 436 401 392 q 395 456 397 438 q 393 481 393 474 q 353 531 393 531 q 296 361 296 531 q 302 227 296 317 q 308 93 308 138 q 306 65 308 81 q 138 8 294 8 q 98 14 110 8 q 74 42 86 19 q 68 88 68 43 q 75 296 68 107 q 83 657 83 524 q 74 907 83 832 q 51 958 72 922 q 32 1010 32 990 q 38 1035 32 1024 q 140 1088 69 1064 q 258 1111 211 1111 q 313 1074 303 1111 q 315 1038 315 1064 q 310 967 315 1014 q 306 894 306 919 q 333 822 306 822 q 384 848 335 822 q 474 874 433 874 q 568 847 536 874 q 626 669 626 799 q 618 565 626 635 q 610 461 610 496 q 649 371 610 393 q 658 247 658 314 z "},"i":{"ha":368,"x_min":17,"x_max":350,"o":"m 350 999 q 303 900 350 940 q 199 860 257 860 q 99 867 125 860 q 42 906 68 875 q 17 967 17 936 q 81 1076 17 1036 q 210 1111 136 1111 q 306 1085 268 1111 q 350 999 350 1054 m 306 229 q 303 92 306 175 q 301 44 304 82 q 149 0 290 0 q 54 36 61 0 l 54 72 q 66 275 54 140 q 78 478 78 410 q 67 624 78 550 q 63 651 65 638 q 43 697 61 657 q 31 744 31 725 q 40 781 31 767 q 54 793 42 783 q 218 840 97 826 q 263 844 253 844 q 304 822 294 844 q 300 643 300 746 q 303 436 300 619 l 306 229 z "},"p":{"ha":663,"x_min":35,"x_max":638,"o":"m 638 468 q 632 367 636 451 q 603 165 625 236 q 481 10 568 51 q 385 -4 451 -4 q 321 1 349 -4 q 299 -65 299 -22 q 304 -120 299 -78 q 310 -174 310 -162 q 307 -203 310 -183 q 129 -267 264 -267 q 53 -231 69 -267 q 44 -140 44 -212 q 51 -6 44 -90 q 61 129 60 96 q 71 339 65 229 q 78 550 78 474 q 68 689 78 635 q 49 740 65 701 q 35 792 35 774 q 103 857 35 829 q 206 879 158 879 q 239 875 231 879 q 260 849 247 871 q 276 826 272 826 q 426 890 363 890 q 483 879 461 890 q 632 557 613 815 q 638 468 638 482 m 418 428 q 404 531 418 488 q 342 596 383 596 q 294 490 294 596 q 308 399 294 439 q 369 342 328 342 q 418 428 418 342 z "},"r":{"ha":582,"x_min":26,"x_max":556,"o":"m 556 674 q 518 526 556 585 q 390 458 475 458 q 347 474 367 458 q 328 513 328 490 q 332 533 328 524 q 342 549 342 538 q 315 592 342 592 q 313 590 314 590 q 289 482 289 543 l 289 368 q 325 124 289 254 q 333 81 333 93 q 324 46 333 61 q 128 0 264 0 q 61 31 76 0 q 50 108 50 53 q 58 315 50 192 q 68 522 68 458 q 43 714 68 633 q 28 758 39 726 q 26 771 26 761 q 93 849 26 817 q 200 875 147 875 q 258 822 235 875 q 400 882 318 882 q 507 831 458 882 q 542 759 529 807 q 556 674 556 711 z "},"s":{"ha":649,"x_min":29,"x_max":618,"o":"m 618 279 q 564 128 618 201 q 436 24 510 54 q 299 0 379 0 q 129 39 192 0 q 29 213 29 101 q 58 315 29 268 q 134 381 86 361 q 217 401 182 401 q 271 392 246 401 q 306 354 306 378 q 297 325 306 349 q 288 293 288 301 q 321 265 288 265 q 351 276 338 265 q 365 300 365 286 q 318 388 365 349 q 221 444 289 411 q 125 503 153 478 q 60 651 60 558 q 272 867 60 814 q 365 882 335 882 q 531 844 464 882 q 614 708 614 799 q 561 621 614 651 q 456 594 517 594 q 407 604 431 594 q 374 635 374 615 q 381 656 374 640 q 388 676 388 672 q 358 704 388 694 q 321 668 321 703 q 386 582 321 629 q 443 546 388 581 q 607 372 579 460 q 614 326 610 360 q 618 279 618 292 z "},"t":{"ha":531,"x_min":24,"x_max":507,"o":"m 507 785 q 486 628 507 688 q 433 593 474 593 q 404 596 428 593 q 374 599 381 599 q 329 575 339 599 q 325 524 325 565 q 372 419 325 419 q 419 440 388 419 q 461 460 451 460 q 486 419 479 460 q 500 257 500 339 q 449 61 500 119 q 414 29 435 46 q 310 -3 374 -3 q 232 4 268 -3 q 119 142 153 19 q 106 193 115 154 q 103 274 103 213 q 113 454 103 333 q 124 557 124 575 q 92 593 124 586 q 74 590 78 590 q 38 601 57 590 q 24 697 24 643 q 43 851 24 743 q 165 1003 100 933 q 314 1108 264 1108 q 358 1043 358 1108 q 356 994 358 1032 q 353 946 353 956 q 358 896 353 917 q 400 881 374 881 q 430 883 407 881 q 458 886 453 886 q 500 864 490 886 q 507 785 507 847 z "},"u":{"ha":672,"x_min":31,"x_max":643,"o":"m 643 272 q 588 40 643 117 q 496 3 560 3 q 419 34 439 3 q 385 65 399 65 q 374 64 378 65 q 215 0 310 0 q 172 4 189 0 q 46 307 46 36 q 52 447 46 354 q 58 586 58 539 q 33 772 58 681 q 31 790 31 782 q 58 836 31 821 q 229 881 139 881 q 272 878 244 881 l 292 856 q 283 677 292 796 q 275 499 275 558 q 325 338 275 338 q 368 365 356 338 q 379 419 374 376 q 388 551 388 479 q 379 696 388 631 q 363 744 378 711 q 347 799 347 778 q 351 825 347 814 q 368 842 354 832 q 539 882 425 882 q 610 856 604 882 q 613 778 613 843 q 603 617 613 724 q 594 457 594 511 q 636 371 594 404 q 643 272 643 313 z "},"y":{"ha":676,"x_min":21,"x_max":624,"o":"m 624 800 q 613 592 613 703 q 617 403 613 529 q 621 215 621 278 q 607 -18 621 71 q 485 -210 588 -139 q 264 -275 390 -275 q 75 -214 138 -275 q 44 -114 44 -183 q 50 -93 44 -107 q 165 0 74 -32 q 192 7 174 3 q 258 10 222 10 q 313 0 292 10 q 356 -44 340 -44 q 401 -7 379 -44 q 403 13 401 0 q 404 33 404 26 q 394 69 404 56 q 379 74 389 74 q 359 68 374 74 q 343 63 344 63 q 231 25 300 25 q 124 64 169 25 q 53 286 53 125 l 53 397 q 56 497 53 431 q 60 597 60 564 q 46 731 60 701 q 31 757 43 736 q 21 786 21 771 q 104 858 21 829 q 226 882 174 882 q 261 879 242 882 q 274 871 265 878 q 293 806 293 847 q 286 725 293 790 q 278 581 278 646 q 296 383 278 472 q 336 338 301 338 q 361 346 350 338 q 396 554 396 372 q 367 744 396 674 q 353 796 353 778 q 432 861 353 836 q 546 881 494 881 q 599 876 588 881 q 619 843 615 869 q 624 800 621 838 z "}}}
